<svg width="38" height="38" viewBox="0 0 38 38" fill="none" xmlns="http://www.w3.org/2000/svg">
<path d="M32.4336 19.902H28.7139C28.2077 19.902 27.7175 19.9711 27.251 20.0984C26.3309 18.2895 24.4523 17.0466 22.2875 17.0466H15.7125C13.5477 17.0466 11.6691 18.2895 10.749 20.0984C10.2825 19.9711 9.79235 19.902 9.2861 19.902H5.56641C2.49709 19.902 0 22.3991 0 25.4684V31.4146C0 33.2562 1.49825 34.7545 3.33984 34.7545H34.6602C36.5017 34.7545 38 33.2562 38 31.4146V25.4684C38 22.3991 35.5029 19.902 32.4336 19.902ZM10.1461 22.6132V32.528H3.33984C2.72598 32.528 2.22656 32.0286 2.22656 31.4147V25.4685C2.22656 23.6269 3.72482 22.1286 5.56641 22.1286H9.2861C9.58832 22.1286 9.88096 22.1697 10.1596 22.2453C10.1516 22.3671 10.1461 22.4895 10.1461 22.6132ZM25.6274 32.528H12.3726V22.6131C12.3726 20.7715 13.8709 19.2733 15.7125 19.2733H22.2875C24.1291 19.2733 25.6274 20.7715 25.6274 22.6131V32.528ZM35.7734 31.4147C35.7734 32.0286 35.274 32.528 34.6602 32.528H27.8539V22.6131C27.8539 22.4894 27.8484 22.3669 27.8404 22.2452C28.119 22.1697 28.4117 22.1285 28.7139 22.1285H32.4336C34.2752 22.1285 35.7734 23.6268 35.7734 25.4684V31.4147Z" fill="#111A34"/>
<path d="M7.42636 9.38892C4.6989 9.38892 2.47998 11.6078 2.47998 14.3353C2.47991 17.0628 4.6989 19.2817 7.42636 19.2817C10.1538 19.2817 12.3727 17.0628 12.3727 14.3353C12.3727 11.6078 10.1538 9.38892 7.42636 9.38892ZM7.42629 17.0551C5.92655 17.0551 4.70647 15.835 4.70647 14.3353C4.70647 12.8356 5.92655 11.6155 7.42629 11.6155C8.92603 11.6155 10.1461 12.8356 10.1461 14.3353C10.1461 15.835 8.92603 17.0551 7.42629 17.0551Z" fill="#111A34"/>
<path d="M18.9999 3.24561C15.356 3.24561 12.3916 6.21005 12.3916 9.85389C12.3916 13.4977 15.356 16.4622 18.9999 16.4622C22.6437 16.4622 25.6082 13.4977 25.6082 9.85389C25.6082 6.21012 22.6437 3.24561 18.9999 3.24561ZM18.9999 14.2356C16.5838 14.2356 14.6182 12.27 14.6182 9.85389C14.6182 7.43785 16.5838 5.47217 18.9999 5.47217C21.416 5.47217 23.3816 7.43778 23.3816 9.85389C23.3816 12.27 21.416 14.2356 18.9999 14.2356Z" fill="#111A34"/>
<path d="M30.5738 9.38892C27.8464 9.38892 25.6274 11.6078 25.6274 14.3353C25.6275 17.0628 27.8464 19.2817 30.5738 19.2817C33.3013 19.2817 35.5202 17.0628 35.5202 14.3353C35.5202 11.6078 33.3013 9.38892 30.5738 9.38892ZM30.5738 17.0551C29.0742 17.0551 27.854 15.835 27.854 14.3353C27.8541 12.8356 29.0742 11.6155 30.5738 11.6155C32.0736 11.6155 33.2936 12.8356 33.2936 14.3353C33.2936 15.835 32.0736 17.0551 30.5738 17.0551Z" fill="#111A34"/>
</svg>
