<svg width="30" height="30" viewBox="0 0 30 30" fill="none" xmlns="http://www.w3.org/2000/svg">
<path d="M27.312 23.9261C27.8562 23.2673 28.1836 22.4231 28.1836 21.5039C28.1836 19.4038 26.4751 17.6953 24.375 17.6953C24.2763 17.6953 24.1788 17.7003 24.082 17.7077V12.3047H24.375C24.8604 12.3047 25.2539 11.9112 25.2539 11.4258C25.2539 10.9404 24.8604 10.5469 24.375 10.5469H23.4961V7.91016C23.4961 7.67707 23.4035 7.45354 23.2386 7.28871L22.0668 6.11684C21.7236 5.77359 21.1671 5.77359 20.8238 6.11684C20.4806 6.46008 20.4806 7.01654 20.8238 7.35979L21.7383 8.2742V10.5469H20.5664V10.2539C20.5664 8.45842 19.4835 6.91189 17.937 6.23074C18.4812 5.57197 18.8086 4.72781 18.8086 3.80859C18.8086 1.70854 17.1001 0 15 0C12.8999 0 11.1914 1.70854 11.1914 3.80859C11.1914 4.72781 11.5188 5.57197 12.063 6.23074C10.5165 6.91189 9.43359 8.45842 9.43359 10.2539V10.5469H5.625C5.13961 10.5469 4.74609 10.9404 4.74609 11.4258C4.74609 11.9112 5.13961 12.3047 5.625 12.3047H5.91797V17.7077C5.82117 17.7003 5.72367 17.6953 5.625 17.6953C3.52494 17.6953 1.81641 19.4038 1.81641 21.5039C1.81641 22.4231 2.14377 23.2673 2.68799 23.9261C1.14146 24.6072 0.0585938 26.1537 0.0585938 27.9492V29.1211C0.0585938 29.6065 0.452109 30 0.9375 30H29.0625C29.5479 30 29.9414 29.6065 29.9414 29.1211V27.9492C29.9414 26.1537 28.8585 24.6072 27.312 23.9261ZM26.4258 21.5039C26.4258 22.6347 25.5058 23.5547 24.375 23.5547C23.2442 23.5547 22.3242 22.6347 22.3242 21.5039C22.3242 20.3731 23.2442 19.4531 24.375 19.4531C25.5058 19.4531 26.4258 20.3731 26.4258 21.5039ZM15 1.75781C16.1308 1.75781 17.0508 2.67779 17.0508 3.80859C17.0508 4.93939 16.1308 5.85938 15 5.85938C13.8692 5.85938 12.9492 4.93939 12.9492 3.80859C12.9492 2.67779 13.8692 1.75781 15 1.75781ZM11.1914 10.2539C11.1914 8.80002 12.3742 7.61719 13.8281 7.61719H16.1719C17.6258 7.61719 18.8086 8.80002 18.8086 10.2539V10.5469H11.1914V10.2539ZM7.67578 12.3047H22.3242V18.2971C21.2682 18.9749 20.5664 20.1586 20.5664 21.5039C20.5664 22.4231 20.8938 23.2673 21.438 23.9261C20.7417 24.2327 20.1392 24.7141 19.6875 25.3155C19.2358 24.7141 18.6333 24.2327 17.937 23.9261C18.4812 23.2673 18.8086 22.4231 18.8086 21.5039C18.8086 19.4038 17.1001 17.6953 15 17.6953C12.8999 17.6953 11.1914 19.4038 11.1914 21.5039C11.1914 22.4231 11.5188 23.2673 12.063 23.9261C11.3667 24.2327 10.7642 24.7141 10.3125 25.3155C9.8608 24.7141 9.25828 24.2327 8.56201 23.9261C9.10623 23.2673 9.43359 22.4231 9.43359 21.5039C9.43359 20.1586 8.73182 18.9749 7.67578 18.2971V12.3047ZM12.9492 21.5039C12.9492 20.3731 13.8692 19.4531 15 19.4531C16.1308 19.4531 17.0508 20.3731 17.0508 21.5039C17.0508 22.6347 16.1308 23.5547 15 23.5547C13.8692 23.5547 12.9492 22.6347 12.9492 21.5039ZM5.625 19.4531C6.7558 19.4531 7.67578 20.3731 7.67578 21.5039C7.67578 22.6347 6.7558 23.5547 5.625 23.5547C4.4942 23.5547 3.57422 22.6347 3.57422 21.5039C3.57422 20.3731 4.4942 19.4531 5.625 19.4531ZM1.81641 27.9492C1.81641 26.4953 2.99924 25.3125 4.45312 25.3125H6.79688C8.25076 25.3125 9.43359 26.4953 9.43359 27.9492V28.2422H1.81641V27.9492ZM11.1914 27.9492C11.1914 26.4953 12.3742 25.3125 13.8281 25.3125H16.1719C17.6258 25.3125 18.8086 26.4953 18.8086 27.9492V28.2422H11.1914V27.9492ZM28.1836 28.2422H20.5664V27.9492C20.5664 26.4953 21.7492 25.3125 23.2031 25.3125H25.5469C27.0008 25.3125 28.1836 26.4953 28.1836 27.9492V28.2422Z" fill="#111A34"/>
</svg>
