<svg width="38" height="36" viewBox="0 0 38 36" fill="none" xmlns="http://www.w3.org/2000/svg">
<path d="M36.7571 28.299C37.5818 26.5597 37.9997 24.6943 37.9997 22.748C37.9997 15.8006 32.4851 10.11 25.5797 9.77584C24.0235 4.17023 18.9117 0.260254 13.0628 0.260254C5.86023 0.260254 0.000571949 6.08666 0.000571949 13.2482C0.000571949 15.1945 0.418414 17.0599 1.24311 18.7992L0.0221691 24.9047C-0.133241 25.6819 0.552375 26.3688 1.32972 26.2151L7.51044 24.9931C9.05876 25.7275 10.7058 26.1379 12.4214 26.2198C14.5847 34.009 23.2732 37.9159 30.4897 34.4928C37.2588 35.8311 36.7309 35.736 36.8864 35.736C37.5899 35.736 38.1154 35.0913 37.978 34.4045L36.7571 28.299ZM8.17097 22.8366C7.94825 22.7228 7.69354 22.6872 7.44832 22.7358L2.53219 23.7078L3.50065 18.8651C3.54985 18.6191 3.51452 18.3635 3.40016 18.14C2.62184 16.6174 2.22708 14.9716 2.22708 13.2482C2.22708 7.31436 7.08793 2.48676 13.0628 2.48676C17.7321 2.48676 21.844 5.52298 23.281 9.86519C16.4749 10.7354 11.3488 16.8766 12.0064 23.9583C10.665 23.8294 9.37982 23.4546 8.17097 22.8366ZM34.4997 28.3649L35.4681 33.2076L30.552 32.2355C30.3066 32.1871 30.0521 32.2225 29.8294 32.3364C28.3067 33.1147 26.661 33.5095 24.9376 33.5095C19.0037 33.5095 14.1761 28.6819 14.1761 22.748C14.1761 16.8141 19.0037 11.9865 24.9376 11.9865C30.9124 11.9865 35.7732 16.8141 35.7732 22.748C35.7732 24.4714 35.3786 26.1172 34.6002 27.6398C34.4858 27.8633 34.4505 28.1188 34.4997 28.3649Z" fill="#111A34"/>
</svg>
