<svg width="35" height="35" viewBox="0 0 35 35" fill="none" xmlns="http://www.w3.org/2000/svg">
<path d="M35 2.46094H31.0352V0.341797H4.44336V5.81055H3.65723C1.64062 5.81055 0 7.45117 0 9.46777C0 11.4844 1.64062 13.125 3.65723 13.125H4.44336V19.8242H3.65723C1.64062 19.8242 0 21.4648 0 23.4814C0 25.498 1.64062 27.1387 3.65723 27.1387H4.44336V31.0159C4.44336 33.0243 6.07729 34.6582 8.08568 34.6582H31.0352V30.5566H35V2.46094ZM32.9492 4.51172V11.1426H31.0352V4.51172H32.9492ZM32.9492 13.1934V19.8242H31.0352V13.1934H32.9492ZM3.65723 11.0742C1.52564 10.9858 1.52701 7.9491 3.65723 7.86133H4.44336V11.0742H3.65723ZM6.49414 7.86133H9.29688V5.81055H6.49414V2.39258H28.9844V28.5059H6.49414V21.875H9.29688V19.8242H6.49414V7.86133ZM3.65723 25.0879C1.52564 24.9994 1.52701 21.9628 3.65723 21.875H4.44336V25.0879H3.65723ZM8.08568 32.6074C7.20809 32.6074 6.49414 31.8935 6.49414 31.0159V30.5566H28.9844V32.6074H8.08568ZM31.0352 28.5059V21.875H32.9492V28.5059H31.0352Z" fill="#111A34"/>
<path d="M23.3092 19.399C23.296 17.509 22.2531 15.7097 20.6342 14.7409C22.925 12.2971 21.1567 8.19221 17.7728 8.20315C14.3891 8.19221 12.6205 12.2977 14.9115 14.7409C13.2924 15.7099 12.2498 17.5086 12.2365 19.3989L12.2212 20.4394H23.3245L23.3092 19.399ZM15.9271 12.0996C15.9271 11.0819 16.7551 10.2539 17.7728 10.2539C20.2214 10.3553 20.2207 13.8443 17.7728 13.9453C16.7551 13.9453 15.9271 13.1174 15.9271 12.0996ZM14.4637 18.3887C15.5521 15.2148 19.9948 15.217 21.082 18.3887H14.4637Z" fill="#111A34"/>
</svg>
