<svg width="38" height="38" viewBox="0 0 38 38" fill="none" xmlns="http://www.w3.org/2000/svg">
<path d="M36.8867 20.2617H35.5508V16.625C35.5508 16.4232 35.4959 16.2252 35.3921 16.0522L33.5291 12.9473C34.0487 12.3381 34.3633 11.549 34.3633 10.6875C34.3633 8.76405 32.7985 7.19922 30.875 7.19922C28.9515 7.19922 27.3867 8.76405 27.3867 10.6875C27.3867 12.9049 29.4411 14.5716 31.621 14.0947L33.3242 16.9334V20.2617H26.0508V16.625C26.0508 13.7956 24.7589 10.8656 22.3948 9.36967C23.5402 8.4023 24.2695 6.95689 24.2695 5.34375C24.2695 2.42079 21.9025 0 19 0C16.1005 0 13.7305 2.4182 13.7305 5.34375C13.7305 6.95689 14.4598 8.4023 15.6052 9.36967C13.2406 10.8659 11.9492 13.7965 11.9492 16.625V20.2617H4.67578V16.9334L6.37903 14.0946C8.5618 14.5722 10.6133 12.901 10.6133 10.6875C10.6133 8.76405 9.04845 7.19922 7.125 7.19922C5.20155 7.19922 3.63672 8.76405 3.63672 10.6875C3.63672 11.549 3.95133 12.3381 4.47086 12.9473L2.6079 16.0522C2.50407 16.2252 2.44922 16.4232 2.44922 16.625V20.2617H1.11328C0.498453 20.2617 0 20.7602 0 21.375V27.3125C0 27.9273 0.498453 28.4258 1.11328 28.4258H4.82422V36.8867C4.82422 37.5015 5.32267 38 5.9375 38C6.55233 38 7.05078 37.5015 7.05078 36.8867V28.4258H30.9492V36.8867C30.9492 37.5015 31.4477 38 32.0625 38C32.6773 38 33.1758 37.5015 33.1758 36.8867V28.4258H36.8867C37.5015 28.4258 38 27.9273 38 27.3125V21.375C38 20.7602 37.5015 20.2617 36.8867 20.2617ZM29.6133 10.6875C29.6133 9.99177 30.1793 9.42578 30.875 9.42578C31.5707 9.42578 32.1367 9.99177 32.1367 10.6875C32.1367 11.3832 31.5707 11.9492 30.875 11.9492C30.1793 11.9492 29.6133 11.3832 29.6133 10.6875ZM7.125 9.42578C7.82073 9.42578 8.38672 9.99177 8.38672 10.6875C8.38672 11.3832 7.82073 11.9492 7.125 11.9492C6.42927 11.9492 5.86328 11.3832 5.86328 10.6875C5.86328 9.99177 6.42927 9.42578 7.125 9.42578ZM15.957 5.34375C15.957 3.65401 17.3505 2.22656 19 2.22656C20.6495 2.22656 22.043 3.65401 22.043 5.34375C22.043 7.02161 20.6779 8.38672 19 8.38672C17.3221 8.38672 15.957 7.02161 15.957 5.34375ZM14.1758 16.625C14.1758 13.6699 15.9803 10.6133 19 10.6133C22.0197 10.6133 23.8242 13.6699 23.8242 16.625V20.2617H14.1758V16.625ZM35.7734 26.1992H2.22656V22.4883H35.7734V26.1992Z" fill="#111A34"/>
</svg>
