<svg width="35" height="35" viewBox="0 0 35 35" fill="none" xmlns="http://www.w3.org/2000/svg">
<g clip-path="url(#clip0)">
<path d="M3.08838 0V35H31.9119V33.9706V8.23529V0H3.08838ZM5.1472 10.2941H16.4816V32.9412H5.1472V10.2941ZM18.5405 10.2941H29.8531V32.9412H18.5405V10.2941ZM5.1472 8.23529V2.05882H29.8531V8.23529H5.1472Z" fill="#111A34"/>
<path d="M12.9957 19.091L10.8136 21.2743L8.63011 19.0908L7.17432 20.5466L10.814 24.1863L14.4519 20.5464L12.9957 19.091Z" fill="#111A34"/>
<path d="M20.5581 22.7723L22.0142 24.2276L24.1963 22.0443L26.3799 24.2278L27.8356 22.7721L24.1959 19.1323L20.5581 22.7723Z" fill="#111A34"/>
<path d="M8.23535 4.11768H10.2942V6.1765H8.23535V4.11768Z" fill="#111A34"/>
<path d="M12.353 4.11768H14.4119V6.1765H12.353V4.11768Z" fill="#111A34"/>
<path d="M16.4707 4.11768H18.5295V6.1765H16.4707V4.11768Z" fill="#111A34"/>
<path d="M20.5884 4.11768H22.6472V6.1765H20.5884V4.11768Z" fill="#111A34"/>
<path d="M24.7061 4.11768H26.7649V6.1765H24.7061V4.11768Z" fill="#111A34"/>
</g>
<defs>
<clipPath id="clip0">
<rect width="35" height="35" fill="white"/>
</clipPath>
</defs>
</svg>
