<svg width="30" height="30" viewBox="0 0 30 30" fill="none" xmlns="http://www.w3.org/2000/svg">
<path d="M29.6877 14.2418L27.5459 12.0999L15.7597 0.313736C15.3413 -0.104579 14.663 -0.104579 14.2446 0.313736L2.45837 12.0999L0.315441 14.2429C-0.0956538 14.6686 -0.0839137 15.3469 0.341746 15.758C0.756985 16.159 1.41525 16.159 1.83049 15.758L2.14333 15.4429V28.9285C2.14333 29.5203 2.62305 30 3.21483 30H26.7873C27.3791 30 27.8588 29.5203 27.8588 28.9285V15.4429L28.1727 15.7569C28.5984 16.168 29.2767 16.1562 29.6877 15.7306C30.0888 15.3154 30.0888 14.657 29.6877 14.2418ZM18.2155 27.8571H11.7867V19.2852H18.2155V27.8571ZM25.7158 27.8571H20.3584V18.2138C20.3584 17.622 19.8787 17.1423 19.2869 17.1423H10.7152C10.1234 17.1423 9.64368 17.622 9.64368 18.2138V27.8571H4.28632V13.3L15.001 2.58524L25.7158 13.3V27.8571Z" fill="#111A34"/>
</svg>
