<svg width="30" height="30" viewBox="0 0 30 30" fill="none" xmlns="http://www.w3.org/2000/svg">
<path d="M26.4844 7.03125C28.423 7.03125 30 5.45425 30 3.51562C30 1.577 28.423 0 26.4844 0C24.5457 0 22.9688 1.577 22.9688 3.51562C22.9688 5.45425 24.5457 7.03125 26.4844 7.03125ZM26.4844 2.34375C27.1305 2.34375 27.6562 2.86949 27.6562 3.51562C27.6562 4.16176 27.1305 4.6875 26.4844 4.6875C25.8382 4.6875 25.3125 4.16176 25.3125 3.51562C25.3125 2.86949 25.8382 2.34375 26.4844 2.34375ZM3.51562 7.03125C5.45425 7.03125 7.03125 5.45425 7.03125 3.51562C7.03125 1.577 5.45425 0 3.51562 0C1.577 0 0 1.577 0 3.51562C0 5.45425 1.577 7.03125 3.51562 7.03125ZM3.51562 2.34375C4.16176 2.34375 4.6875 2.86949 4.6875 3.51562C4.6875 4.16176 4.16176 4.6875 3.51562 4.6875C2.86949 4.6875 2.34375 4.16176 2.34375 3.51562C2.34375 2.86949 2.86949 2.34375 3.51562 2.34375ZM26.5027 8.14453C26.497 8.14453 26.4912 8.14453 26.4855 8.14453C24.0598 8.14453 23.1402 9.91058 22.5607 11.6393C22.3636 12.2273 21.9358 13.512 21.655 14.3555H20.2734V11.6602C20.2734 9.72153 18.6964 8.14453 16.7578 8.14453H13.2422C11.3036 8.14453 9.72656 9.72153 9.72656 11.6602V14.3555H8.34503C8.06419 13.512 7.63641 12.2273 7.43935 11.6393C6.85959 9.91058 5.9404 8.14453 3.51448 8.14453C3.50876 8.14453 3.50281 8.14453 3.49709 8.14453C1.56876 8.15117 0 9.72839 0 11.6602V18.0469C0 19.5747 0.979843 20.8772 2.34375 21.3609V21.3867C2.37396 21.3867 2.40349 21.389 2.43324 21.3913C2.56371 21.4336 2.69737 21.4687 2.83401 21.4957C3.2357 21.6815 3.51562 22.0876 3.51562 22.5586V30H5.85938V22.5586C5.85938 22.2128 5.80833 21.8786 5.71472 21.5625H7.08984C7.73598 21.5625 8.26172 22.0882 8.26172 22.7344V30H10.6055V22.7344C10.6055 20.7957 9.02847 19.2188 7.08984 19.2188H3.51562C3.48541 19.2188 3.45589 19.2165 3.42613 19.2142C3.29567 19.1718 3.162 19.1368 3.02536 19.1098C2.62367 18.924 2.34375 18.5179 2.34375 18.0469V11.6602C2.34375 11.0163 2.86491 10.4906 3.50533 10.4883C4.03496 10.4865 4.58015 10.4846 5.2169 12.3841C5.52132 13.2921 6.37939 15.8714 6.38809 15.8972L6.65474 16.6992H23.3453L23.6119 15.8972C23.6206 15.8714 24.4787 13.2921 24.7831 12.3841C25.4196 10.4846 25.965 10.4871 26.4947 10.4883C27.1351 10.4906 27.6562 11.0163 27.6562 11.6602V18.0469C27.6562 18.5179 27.3763 18.924 26.9746 19.1098C26.838 19.1368 26.7043 19.1718 26.5739 19.2142C26.5441 19.2165 26.5146 19.2188 26.4844 19.2188H22.9688C21.0301 19.2188 19.4531 20.7957 19.4531 22.7344V30H21.7969V22.7344C21.7969 22.0882 22.3226 21.5625 22.9688 21.5625H24.2853C24.1917 21.8786 24.1406 22.2128 24.1406 22.5586V30H26.4844V22.5586C26.4844 22.0876 26.7643 21.6815 27.166 21.4957C27.3026 21.4687 27.4363 21.4336 27.5668 21.3913C27.5965 21.389 27.626 21.3867 27.6562 21.3867V21.3609C29.0202 20.8772 30 19.5747 30 18.0469V11.6602C30 9.72839 28.4312 8.15117 26.5027 8.14453ZM12.0703 11.6602C12.0703 11.014 12.5961 10.4883 13.2422 10.4883H16.7578C17.4039 10.4883 17.9297 11.014 17.9297 11.6602V14.3555H12.0703V11.6602ZM15 7.03125C16.9386 7.03125 18.5156 5.45425 18.5156 3.51562C18.5156 1.577 16.9386 0 15 0C13.0614 0 11.4844 1.577 11.4844 3.51562C11.4844 5.45425 13.0614 7.03125 15 7.03125ZM15 2.34375C15.6461 2.34375 16.1719 2.86949 16.1719 3.51562C16.1719 4.16176 15.6461 4.6875 15 4.6875C14.3539 4.6875 13.8281 4.16176 13.8281 3.51562C13.8281 2.86949 14.3539 2.34375 15 2.34375Z" fill="#111A34"/>
</svg>
