<svg width="30" height="30" viewBox="0 0 30 30" fill="none" xmlns="http://www.w3.org/2000/svg">
<path d="M29.4081 0.113516C29.1061 -0.0378388 28.7504 -0.0378388 28.4483 0.113516L0.592121 14.0416C0.0629747 14.3065 -0.151283 14.9501 0.11351 15.4792C0.264237 15.7804 0.547863 15.9932 0.879199 16.0537L11.9349 18.0647L13.9459 29.1204C14.0282 29.5736 14.391 29.9235 14.8469 29.9893C14.8973 29.9966 14.9482 30.0001 14.999 30C15.4051 30.0002 15.7764 29.7708 15.958 29.4075L29.8861 1.55129C30.1512 1.02227 29.9372 0.37856 29.4081 0.113516ZM15.478 25.5741L13.9095 16.9515C13.8284 16.516 13.4877 16.1754 13.0524 16.0944L4.42559 14.5216L26.5316 3.46806L15.478 25.5741Z" fill="#0779E4"/>
</svg>
