<svg width="49" height="49" viewBox="0 0 49 49" fill="none" xmlns="http://www.w3.org/2000/svg">
<g clip-path="url(#clip0)">
<path d="M31.1354 42.875H7.65627C4.55906 42.875 2.04169 40.3576 2.04169 37.2604V5.61458C2.04169 2.51738 4.55906 0 7.65627 0H31.1354C34.2326 0 36.75 2.51738 36.75 5.61458V37.2604C36.75 40.3576 34.2326 42.875 31.1354 42.875Z" fill="#1976D2"/>
<path d="M20.4167 0H7.65627C4.55906 0 2.04169 2.51738 2.04169 5.61458V37.2604C2.04169 40.3576 4.55906 42.875 7.65627 42.875H20.4167V0Z" fill="#1667B7"/>
<path d="M41.3438 49H17.8646C14.7674 49 12.25 46.4826 12.25 43.3854V13.7812C12.25 10.684 14.7674 8.16663 17.8646 8.16663H41.3438C44.441 8.16663 46.9583 10.684 46.9583 13.7812V43.3854C46.9583 46.4826 44.441 49 41.3438 49Z" fill="#ECEFF1"/>
<path d="M37.2604 34.7084H21.9479C21.1027 34.7084 20.4167 34.0224 20.4167 33.1771C20.4167 32.3319 21.1027 31.6459 21.9479 31.6459H37.2604C38.1057 31.6459 38.7917 32.3319 38.7917 33.1771C38.7917 34.0224 38.1057 34.7084 37.2604 34.7084Z" fill="#607D8B"/>
<path d="M37.2604 42.875H21.9479C21.1027 42.875 20.4167 42.189 20.4167 41.3438C20.4167 40.4985 21.1027 39.8125 21.9479 39.8125H37.2604C38.1057 39.8125 38.7917 40.4985 38.7917 41.3438C38.7917 42.189 38.1057 42.875 37.2604 42.875Z" fill="#607D8B"/>
<path d="M37.2604 27.5625H21.9479C21.1027 27.5625 20.4167 26.8765 20.4167 26.0312C20.4167 25.186 21.1027 24.5 21.9479 24.5H37.2604C38.1057 24.5 38.7917 25.186 38.7917 26.0312C38.7917 26.8765 38.1057 27.5625 37.2604 27.5625Z" fill="#607D8B"/>
<path d="M37.2604 19.3959H21.9479C21.1027 19.3959 20.4167 18.7099 20.4167 17.8646C20.4167 17.0194 21.1027 16.3334 21.9479 16.3334H37.2604C38.1057 16.3334 38.7917 17.0194 38.7917 17.8646C38.7917 18.7099 38.1057 19.3959 37.2604 19.3959Z" fill="#607D8B"/>
<path d="M29.6042 8.16663H17.8646C14.7674 8.16663 12.25 10.684 12.25 13.7812V43.3854C12.25 46.4826 14.7674 49 17.8646 49H29.6042V42.875H21.9479C21.1027 42.875 20.4167 42.189 20.4167 41.3437C20.4167 40.4985 21.1027 39.8125 21.9479 39.8125H29.6042V34.7083H21.9479C21.1027 34.7083 20.4167 34.0223 20.4167 33.177C20.4167 32.3318 21.1027 31.6458 21.9479 31.6458H29.6042V27.5625H21.9479C21.1027 27.5625 20.4167 26.8765 20.4167 26.0312C20.4167 25.186 21.1027 24.5 21.9479 24.5H29.6042V19.3958H21.9479C21.1027 19.3958 20.4167 18.7098 20.4167 17.8645C20.4167 17.0193 21.1027 16.3333 21.9479 16.3333H29.6042V8.16663Z" fill="#CDD0D2"/>
<path d="M29.6042 31.6459H21.9479C21.1027 31.6459 20.4167 32.3319 20.4167 33.1771C20.4167 34.0224 21.1027 34.7084 21.9479 34.7084H29.6042V31.6459Z" fill="#546D79"/>
<path d="M29.6042 39.8125H21.9479C21.1027 39.8125 20.4167 40.4985 20.4167 41.3438C20.4167 42.189 21.1027 42.875 21.9479 42.875H29.6042V39.8125Z" fill="#546D79"/>
<path d="M29.6042 24.5H21.9479C21.1027 24.5 20.4167 25.186 20.4167 26.0312C20.4167 26.8765 21.1027 27.5625 21.9479 27.5625H29.6042V24.5Z" fill="#546D79"/>
<path d="M29.6042 16.3334H21.9479C21.1027 16.3334 20.4167 17.0194 20.4167 17.8646C20.4167 18.7099 21.1027 19.3959 21.9479 19.3959H29.6042V16.3334Z" fill="#546D79"/>
</g>
<defs>
<clipPath id="clip0">
<rect width="49" height="49" fill="white"/>
</clipPath>
</defs>
</svg>
