<svg width="43" height="43" viewBox="0 0 43 43" fill="none" xmlns="http://www.w3.org/2000/svg">
<g clip-path="url(#clip0)">
<path d="M16.125 11.6458C17.114 11.6458 17.9167 10.8431 17.9167 9.85408V7.16658H25.0833V9.85408C25.0833 10.8431 25.886 11.6458 26.875 11.6458C27.864 11.6458 28.6667 10.8431 28.6667 9.85408V7.16658C28.6667 5.19038 27.0595 3.58325 25.0833 3.58325H17.9167C15.9404 3.58325 14.3333 5.19038 14.3333 7.16658V9.85408C14.3333 10.8431 15.136 11.6458 16.125 11.6458Z" fill="#455A64"/>
<path d="M21.07 25.0116L21.5 25.0833L21.93 25.0116L43 17.9883V34.4895C43 37.2129 40.7963 39.4166 38.0729 39.4166H4.92709C2.20375 39.4166 0 37.2129 0 34.4895V17.9883L21.07 25.0116Z" fill="#1976D2"/>
<path d="M0 13.8853V17.9882L21.07 25.0116L21.5 25.0832L21.93 25.0116L43 17.9882V13.8853C43 11.162 40.7963 8.95825 38.0729 8.95825H4.92709C2.20375 8.95825 0 11.162 0 13.8853Z" fill="#ECEFF1"/>
<path d="M21.5 3.58325H25.0833C27.0595 3.58325 28.6667 5.19038 28.6667 7.16658V8.95825H25.0833V7.16658H21.5V3.58325Z" fill="#3C4E57"/>
<path d="M43 17.9883V34.4895C43 37.2129 40.7963 39.4166 38.0729 39.4166H21.5V25.0833L21.93 25.0116L43 17.9883Z" fill="#1976D2"/>
<path d="M21.5 8.95825H25.0833H28.6667H38.0729C40.7963 8.95825 43 11.162 43 13.8853V17.9882L21.93 25.0116L21.5 25.0832V8.95825Z" fill="#CDD0D2"/>
</g>
<defs>
<clipPath id="clip0">
<rect width="43" height="43" fill="white" transform="matrix(-1 0 0 1 43 0)"/>
</clipPath>
</defs>
</svg>
