<svg height="52" width="52" viewBox="0 0 512 512" xmlns="http://www.w3.org/2000/svg"><g fill="#57a4ff"><path d="M464 64H48a32 32 0 00-32 32v256a32 32 0 0032 32h416a32 32 0 0032-32V96a32 32 0 00-32-32zM208 300.8V147.2L336 224zM104 408h24v48h-24z"/></g><g fill="#004fac"><path d="M340.116 217.14l-128-76.8A8 8 0 00200 147.2v153.6a8 8 0 0012.116 6.86l128-76.8a8 8 0 000-13.72zM216 286.67V161.33L320.451 224z"/><path d="M464 56H48A40.045 40.045 0 008 96v256a40.045 40.045 0 0040 40h416a40.045 40.045 0 0040-40V96a40.045 40.045 0 00-40-40zm24 296a24.028 24.028 0 01-24 24H48a24.027 24.027 0 01-24-24V96a24.027 24.027 0 0124-24h416a24.027 24.027 0 0124 24zM448 424H136v-16a8 8 0 00-8-8h-24a8 8 0 00-8 8v16H32a8 8 0 000 16h64v16a8 8 0 008 8h24a8 8 0 008-8v-16h312a8 8 0 000-16zm-328 24h-8v-32h8zM480 424h-8a8 8 0 000 16h8a8 8 0 000-16z"/><path d="M104 88H48a8 8 0 000 16h56a8 8 0 000-16zM136 88h-8a8 8 0 000 16h8a8 8 0 000-16z"/></g></svg>