<svg width="44" height="40" viewBox="0 0 44 40" fill="none" xmlns="http://www.w3.org/2000/svg">
<path d="M19.4635 0.66626H2.78386C1.24635 0.66626 0 1.9127 0 3.45012V17.293C0 18.8184 1.22702 20.0566 2.74777 20.0759V20.0768L3.52344 20.5157H7.94922L8.9876 20.0769H19.4632C21.0007 20.0769 22.2471 18.8305 22.2471 17.293V3.45012C22.2471 1.91278 21.0008 0.666432 19.4635 0.66626Z" fill="#6B61B1"/>
<path d="M24.7984 0.66626H19.2163C20.7538 0.66626 22.0002 1.91261 22.0002 3.45012V17.293C22.0002 18.8305 20.7538 20.0769 19.2163 20.0769H24.7984C26.3359 20.0769 27.5822 18.8305 27.5822 17.293V3.45012C27.5822 1.9127 26.3359 0.66626 24.7984 0.66626Z" fill="#5E54AC"/>
<path d="M2.7478 26.5434C2.7478 26.949 3.25973 27.1268 3.51119 26.8085L8.4941 20.5002C8.70533 20.2327 9.02743 20.0767 9.36826 20.0767H2.7478V26.5434Z" fill="#5E54AC"/>
<path d="M34.2426 31.8997L35.2425 33.1658C35.4141 33.1594 35.5534 33.0289 35.5759 32.8586C35.6763 32.098 36.1611 31.4436 36.8707 31.1098C37.9568 30.5989 38.7086 29.4951 38.7086 28.2153V12.3136C38.7086 10.5475 37.2769 9.11572 35.5107 9.11572H15.5133C13.7471 9.11572 12.3154 10.5474 12.3154 12.3136V28.2153C12.3154 29.9815 13.7471 31.4132 15.5133 31.4132H33.2382C33.6299 31.4132 33.9999 31.5925 34.2426 31.8997Z" fill="#E49542"/>
<path d="M40.8021 9.11572H35.2012C36.9673 9.11572 38.3991 10.5474 38.3991 12.3136V28.2153C38.3991 29.4951 37.6472 30.5989 36.5611 31.1098C35.7611 31.4861 35.2427 32.2816 35.2427 33.1657L39.9667 39.1462C40.2555 39.5119 40.8436 39.3076 40.8436 38.8417V31.4121C42.5905 31.3899 44.0001 29.9675 44.0001 28.2152V12.3136C44 10.5474 42.5683 9.11572 40.8021 9.11572Z" fill="#E27D47"/>
<path d="M38.6931 15.5867H17.6227C17.256 15.5867 16.9587 15.2894 16.9587 14.9227C16.9587 14.556 17.256 14.2588 17.6227 14.2588H38.6931C39.0598 14.2588 39.3571 14.556 39.3571 14.9227C39.3571 15.2894 39.0598 15.5867 38.6931 15.5867Z" fill="#F0F7FF"/>
<path d="M38.6931 20.6626H17.6227C17.256 20.6626 16.9587 20.3654 16.9587 19.9987C16.9587 19.632 17.256 19.3347 17.6227 19.3347H38.6931C39.0598 19.3347 39.3571 19.632 39.3571 19.9987C39.3571 20.3653 39.0598 20.6626 38.6931 20.6626Z" fill="#F0F7FF"/>
<path d="M38.6931 25.7381H17.6227C17.256 25.7381 16.9587 25.4408 16.9587 25.0741C16.9587 24.7074 17.256 24.4102 17.6227 24.4102H38.6931C39.0598 24.4102 39.3571 24.7074 39.3571 25.0741C39.3571 25.4408 39.0598 25.7381 38.6931 25.7381Z" fill="#F0F7FF"/>
</svg>
