<svg width="52" height="52" viewBox="0 0 52 52" fill="none" xmlns="http://www.w3.org/2000/svg">
<path d="M43.8853 49.3102H8.02344V0H35.8167L43.8853 8.06906V49.3102Z" fill="#E3E4D8"/>
<path d="M35.8166 0V8.06906H43.8853L35.8166 0Z" fill="#D0CEBD"/>
<path d="M8.02344 35.8618H43.8853V51.9999H8.02344V35.8618Z" fill="#B53438"/>
<path d="M13.4027 49.3102C12.908 49.3102 12.5061 48.9088 12.5061 48.414V39.4484C12.5061 38.9532 12.908 38.5518 13.4027 38.5518C13.8978 38.5518 14.2993 38.9532 14.2993 39.4484V48.414C14.2993 48.9088 13.8978 49.3102 13.4027 49.3102Z" fill="white"/>
<path d="M38.5062 40.345H33.1269C32.6322 40.345 32.2303 39.9431 32.2303 39.4484C32.2303 38.9532 32.6322 38.5518 33.1269 38.5518H38.5062C39.0013 38.5518 39.4028 38.9532 39.4028 39.4484C39.4028 39.9431 39.0013 40.345 38.5062 40.345Z" fill="white"/>
<path d="M38.5062 44.8276H33.1269C32.6322 44.8276 32.2303 44.4261 32.2303 43.931C32.2303 43.4363 32.6322 43.0344 33.1269 43.0344H38.5062C39.0013 43.0344 39.4028 43.4363 39.4028 43.931C39.4028 44.4261 39.0013 44.8276 38.5062 44.8276Z" fill="white"/>
<path d="M33.1269 49.3102C32.6322 49.3102 32.2303 48.9088 32.2303 48.414V39.4484C32.2303 38.9532 32.6322 38.5518 33.1269 38.5518C33.622 38.5518 34.0235 38.9532 34.0235 39.4484V48.414C34.0235 48.9088 33.622 49.3102 33.1269 49.3102Z" fill="white"/>
<path d="M25.3097 9.66235C25.222 9.69092 24.1219 11.2124 25.3958 12.4998C26.244 10.6339 25.3486 9.65045 25.3097 9.66235ZM25.8524 17.1296C25.2129 19.3128 24.3695 21.6697 23.4629 23.8033C25.3295 23.088 27.3604 22.4632 29.2663 22.0212C28.0606 20.6378 26.8554 18.9101 25.8524 17.1296ZM32.5262 22.9365C33.2542 23.4895 33.4315 23.7692 33.9088 23.7692C34.1175 23.7692 34.7137 23.7605 34.9891 23.3804C35.1228 23.1956 35.1747 23.0773 35.1942 23.0154C35.0851 22.9571 34.9387 22.8417 34.1444 22.8417C33.6926 22.8417 33.126 22.8611 32.5262 22.9365ZM20.3431 26.857C18.4332 27.9158 17.6552 28.7867 17.5997 29.2778C17.5906 29.3595 17.5664 29.573 17.9841 29.8884C18.1178 29.8463 18.895 29.4964 20.3431 26.857ZM17.9643 31.3793C17.6532 31.3793 17.3549 31.2797 17.1002 31.0916C16.1703 30.4013 16.0449 29.6345 16.104 29.112C16.2663 27.6766 18.0646 26.1722 21.4511 24.64C22.7948 21.7316 24.0735 18.148 24.8356 15.1543C23.9446 13.2377 23.0773 10.7514 23.7085 9.2926C23.9299 8.78162 24.2072 8.38925 24.7217 8.21945C24.9261 8.1532 25.4406 8.06909 25.6299 8.06909C26.0988 8.06909 26.5491 8.62848 26.7657 8.99228C27.1692 9.66751 27.1711 10.4538 27.1073 11.2124C27.0454 11.9491 26.92 12.6819 26.7756 13.4063C26.6701 13.9387 26.5507 14.4687 26.4233 14.9968C27.6274 17.4521 29.3325 19.9547 30.9678 21.6678C32.1398 21.4591 33.1475 21.3531 33.9687 21.3531C35.3664 21.3531 36.2154 21.6749 36.5605 22.3374C36.8477 22.8861 36.7291 23.5284 36.2118 24.2437C35.7143 24.9312 35.0295 25.2943 34.2289 25.2943C33.1411 25.2943 31.8771 24.6166 30.466 23.2781C27.9313 23.8018 24.9717 24.7349 22.579 25.7679C21.832 27.333 21.1167 28.5938 20.4498 29.519C19.5361 30.7885 18.7462 31.3793 17.9643 31.3793Z" fill="#B53438"/>
<path d="M16.0925 45.7242H13.4027C12.908 45.7242 12.5061 45.3227 12.5061 44.8276V39.4484C12.5061 38.9532 12.908 38.5518 13.4027 38.5518H16.0925C18.0702 38.5518 19.6786 40.1601 19.6786 42.1382C19.6786 44.1159 18.0702 45.7242 16.0925 45.7242ZM14.2993 43.931H16.0925C17.0812 43.931 17.8853 43.1268 17.8853 42.1382C17.8853 41.1491 17.0812 40.345 16.0925 40.345H14.2993V43.931Z" fill="white"/>
<path d="M24.1615 49.3102H23.2649C22.7698 49.3102 22.3683 48.9088 22.3683 48.414V39.4484C22.3683 38.9532 22.7698 38.5518 23.2649 38.5518H24.1615C27.127 38.5518 29.5407 40.9643 29.5407 43.931C29.5407 46.8977 27.127 49.3102 24.1615 49.3102ZM24.1615 47.5174H24.1702H24.1615ZM24.1615 40.345V47.5174C26.1392 47.5174 27.7475 45.9087 27.7475 43.931C27.7475 41.9533 26.1392 40.345 24.1615 40.345Z" fill="white"/>
</svg>
